<svg width="120" height="120" viewBox="0 0 120 120" fill="none" xmlns="http://www.w3.org/2000/svg">
<path fill-rule="evenodd" clip-rule="evenodd" d="M62.2556 0C27.8728 2.23401e-05 6.45518e-06 26.8629 5.00671e-06 60C3.55824e-06 93.1371 27.8728 120 62.2556 120L62.2556 90.5852C44.8459 90.5693 30.7377 76.9625 30.7377 60.1798C30.7377 43.3972 44.8459 29.7903 62.2556 29.7745L62.2556 0Z" fill="#444AD3"/>
<path fill-rule="evenodd" clip-rule="evenodd" d="M62.2556 90.4053C62.2556 90.4053 62.2557 90.4053 62.2557 90.4053C79.6794 90.4053 93.8042 76.7923 93.8042 59.9999C93.8042 43.2074 79.6794 29.5945 62.2557 29.5945C62.2557 29.5945 62.2556 29.5945 62.2556 29.5945V90.4053Z" fill="#B1FAFF"/>
</svg>
